<svg xmlns="http://www.w3.org/2000/svg" width="160" height="160" viewBox="0 0 160 160"><defs><style>.a{fill:#29b17b;}</style></defs><path class="a" d="M865,365a80,80,0,1,0,80,80A80,80,0,0,0,865,365Zm0,137.143q-1.512,0-3-.078a2.857,2.857,0,0,1-2.71-2.854V479.286a11.4,11.4,0,0,0-4.536-9.115c-.025-.021-.051-.04-.075-.057a17.114,17.114,0,0,1-6.817-13.685q0-.658.049-1.305l.019-.231,2.789-35.607h0a2.857,2.857,0,0,1,5.714,0v28.572a2.857,2.857,0,1,0,5.714,0V419.286a2.857,2.857,0,0,1,5.714,0v28.572a2.857,2.857,0,0,0,5.714,0V419.286a2.857,2.857,0,1,1,5.714,0l2.789,35.607.019.232q.049.647.049,1.3a17.113,17.113,0,0,1-6.817,13.685c-.025.017-.05.036-.076.057a11.405,11.405,0,0,0-4.536,9.115V490.36A45.711,45.711,0,1,0,826.988,470.4l7.4-7.4.029-.028A2.857,2.857,0,0,1,839.285,465v22.857a2.857,2.857,0,0,1-2.857,2.857H813.572a2.858,2.858,0,0,1-2.031-4.867l.01-.011,7.23-7.228A57.146,57.146,0,1,1,865,502.143Z" transform="translate(-785 -365)"/></svg>